<svg xmlns="http://www.w3.org/2000/svg" viewBox="0 0 401.05 128.26"><defs><style>.cls-1{fill:#d51b22;fill-rule:evenodd;}</style></defs><title>logo</title><g id="Слой_2" data-name="Слой 2"><g id="_1" data-name="???? 1"><path class="cls-1" d="M227.58,107.77Zm-7.29,10Zm-60.56,7.37Zm17.92-77.9Zm-1.16,13.94L175.76,70q-.35,4.37-.85,9.82-.48,5.21-1,10.63-.58,5.66-1.18,11.15l-1.09,9.57,3.67-.69.08,0h.12c13.81-1.29,24.06-2.88,31.61-4.05,12.9-2,18.35-2.85,20.48,1.36a12.15,12.15,0,0,1,1.25,4.67,6.93,6.93,0,0,1-.4,2.86,4.14,4.14,0,0,1-2,2.27,4.93,4.93,0,0,1-2,.49,24.64,24.64,0,0,1-4.12-.27c-.83-.1-1.69-.2-2.49-.26q-1.78-.11-3.61-.17t-4-.05q-2.75,0-5.65.14t-6.25.44q-3.14.28-6.62.71t-6.76.93c-2,.3-4.24.47-6.5.65a64.39,64.39,0,0,0-8.24,1,23.89,23.89,0,0,0-5.7,2.31c-1.81.93-3.34,1.71-4.76,1.71a4.06,4.06,0,0,1-1.94-.54,4.11,4.11,0,0,1-1.43-1.35c-1.29-2-1.49-3.4-.74-4.73a8.09,8.09,0,0,1,3.24-2.65c6-48.94,6.8-70.46,7.18-80.48.32-8.4.36-9.33,2.88-11a6.82,6.82,0,0,1,2.56-1,13.35,13.35,0,0,1,3.17-.15c4.06.24,3.8,7.17,3.51,14.94-.05,1.44-.11,2.92-.14,4.31v.08l-.38,4.66-.52,6.23-.64,7.71Zm-55.92,65.25ZM15.89,104.88ZM116.82,58.4Zm10.29,36c1.41,7.18,2.9,14.74,3.12,30.52v.62l-.46.41a9.7,9.7,0,0,1-3.6,2.07,5.61,5.61,0,0,1-3,.08,5.22,5.22,0,0,1-2.61-1.65,8.77,8.77,0,0,1-1.75-3.38c-1.83-6.22-2.56-12.54-3.28-18.85s-1.42-12.39-3.18-18.34a42.14,42.14,0,0,0-5.46-.75c-2.12-.14-4.61-.13-8.64-.05l-2.86,0c-9.12.15-24.06.39-28.29,2.73l-.1.06-.11,0c-1.18.41-2.6,1-4.1,1.7a60.31,60.31,0,0,1-6.87,2.7c-4.66,1.38-8.81,1.24-10.3-3.69-1.08-3.57-.51-6.22,2.24-8.3,2.41-1.82,6.6-3.06,13-4,2.79-.41,7.08-.75,11.72-1,5.62-.32,11.79-.52,16.35-.58,5.35-.07,9.12,0,12.35,0,2.92,0,5.39.07,8.22,0A68.24,68.24,0,0,0,107,66.69c-.45-1.17-1.06-2.76-2.32-6.44v0C100.14,46.1,95.32,35,90.47,26.76c-5-8.56-10.08-13.92-14.79-16.24C64.82,9.22,51.19,22.23,39.59,40,27.77,58.16,18.16,81.19,15.65,99.32l-.06.46a17.53,17.53,0,0,0,.31,5.09c.59,3.69,1.15,7.22-2.61,11.32l-.13.14-.19.11a10.16,10.16,0,0,1-5.16,1.27,9.85,9.85,0,0,1-3.92-.83,6.65,6.65,0,0,1-3-2.63A6.31,6.31,0,0,1,0,110.9v-.17c6.44-44.88,25.32-72,28-75.95l.11-.16C36.89,22,45.32,12.79,53.38,7c7.18-5.12,14.09-7.49,20.68-7S86.89,4,92.66,10.46c5.55,6.21,10.7,15.26,15.38,27.27q.6,1.54,1.45,3.59l1.93,4.51,2.46,5.71,2.95,6.87a68.55,68.55,0,0,1,2.44,7.07,96.85,96.85,0,0,0,3.39,9.69l1,0c1.08,0,2.31-.07,3,0s1.67.14,2.77.21c.83.05,1.62.09,2.14.11a9.17,9.17,0,0,1,4.3,1.16,7.06,7.06,0,0,1,3.1,3.18c.7,2-.44,3.22-2.62,4s-5.95,1-9.44,1.22l-1.47.09c.46,3.42,1,6.33,1.62,9.31Zm255.5-73.87Zm3,32.1ZM362.48,92.75Zm22.79,6.8Zm2.9-2.44Zm1.49-1.34Zm-31,7.67ZM324.95,91.08ZM333.1,75Zm-7.56-38.5Zm-13.41,89.21Zm-11.49-78.9Zm8.05-12Zm3.18-3Zm2.24-1.62Zm12.83-7Zm23.71-6.3q3.47-.41,7.5-.62t8.45-.21a31.57,31.57,0,0,1,3.91.26,40,40,0,0,1,4.14.75,25.4,25.4,0,0,1,4.18,1.36,23.8,23.8,0,0,1,3.78,2,21,21,0,0,1,3.32,2.71,21.33,21.33,0,0,1,2.71,3.34,14.39,14.39,0,0,1,1.87,4.18,18.72,18.72,0,0,1,.61,4.89,26.75,26.75,0,0,1-.6,5.54,31.94,31.94,0,0,1-1.77,5.62,33.28,33.28,0,0,1-3.17,5.81,52.91,52.91,0,0,1-4.74,6,68.94,68.94,0,0,1-6.47,6.18q-3.68,3.12-8.28,6.32t-10.39,6.49q-4.64,2.64-10.15,5.38l1.55.78q2.23,1.16,4.85,2.77l5.17,3.12,5.33,3.12q2.67,1.55,5.33,2.91t5.29,2.54A28.94,28.94,0,0,0,378,99.91a18,18,0,0,0,4.28.55,5.66,5.66,0,0,0,1.68-.24,4.27,4.27,0,0,0,1.33-.68c.54-.41,1-.81,1.49-1.19s.91-.79,1.41-1.25,1.06-1,1.49-1.34,1-.87,1.53-1.26a6.6,6.6,0,0,1,2.13-1.13,8.18,8.18,0,0,1,2.48-.37,4.1,4.1,0,0,1,2.79,1,5.55,5.55,0,0,1,1.59,2.63,18.8,18.8,0,0,1,.67,3.29,33.19,33.19,0,0,1,.22,4v.44l-.28.37a19.68,19.68,0,0,1-7.34,6,22.59,22.59,0,0,1-9.68,2,21.74,21.74,0,0,1-2.55-.16q-1.32-.16-2.78-.47a29,29,0,0,1-3.42-1q-1.88-.66-4.28-1.7t-5.4-2.5q-3-1.48-6.73-3.42-3.53-1.86-8.46-4.57t-10.39-5.8a48.32,48.32,0,0,0-7-1.48,58.09,58.09,0,0,0-7.79-.51l-2.63.15h-.07a6.35,6.35,0,0,1-1.82-.28,9.78,9.78,0,0,1-1.84-.78,5,5,0,0,1-1.69-1.39,3.32,3.32,0,0,1-.68-2,8.63,8.63,0,0,1,.09-1.17c.06-.42.14-.85.25-1.3a10.4,10.4,0,0,1,.45-1.43,11.1,11.1,0,0,1,.66-1.38,8.29,8.29,0,0,1,.92-1.31,8,8,0,0,1,1.15-1.1,5,5,0,0,1,1.65-.84,6.45,6.45,0,0,1,1.72-.27q2.11-.56,4.6-1.3T333.1,75a107.92,107.92,0,0,0,11.44-4.49q2.94-1.34,5.76-2.83T356,64.45a55,55,0,0,0,5.25-3.56,48.48,48.48,0,0,0,4.57-4,40.13,40.13,0,0,0,3.82-4.36,36.17,36.17,0,0,0,3-4.7,21.19,21.19,0,0,0,1.91-5,23.5,23.5,0,0,0,.63-5.54q0-5.19-3.66-7.73-3.89-2.7-12-2.7a26.29,26.29,0,0,0-3.62.32q-2.26.33-5.34,1t-6.29,1.53q-3.14.85-6.52,1.94t-6.36,2.28q-3,1.21-5.87,2.57A27.84,27.84,0,0,0,321,39.15a11.17,11.17,0,0,0-2.43,2.37l-1.15,5.7v0l-.75,3.29-.75,3.66q-.37,1.9-.7,4.18t-.63,5q-.29,2.61-.56,5.77t-.49,6.54q-.23,3.54-.34,7.55T313.07,92q0,1.25.05,2.81l.17,4,.26,4.72.34,4.94.36,4.86.32,4.46.23,3.54q.08,1.5.08,2.14v.31l-.15.29a2.67,2.67,0,0,1-1.13,1.11,6.29,6.29,0,0,1-1.46.56,13.28,13.28,0,0,1-2.34.32q-1.45.1-3.49.1a8.64,8.64,0,0,1-1.54-.14,7.55,7.55,0,0,1-1.45-.41,4.74,4.74,0,0,1-1.29-.74,3,3,0,0,1-.89-1.2l-.07-.18,0-.19q-.4-4-.68-7.49t-.53-7.23l-.43-7.09-.4-7.09q-.18-3.49-.34-7.21t-.26-7.42q-.11-3.75-.17-7.86-.06-4.47-.06-8.49l0-2,.11-2.22.17-2.3.21-2.22.2-2,.17-1.87.11-1.4,0-.79v-.55l.4-.4a11.86,11.86,0,0,1,1-.88c.35-.27.76-.56,1.24-.86A11.33,11.33,0,0,1,303.7,45q.7-.29,1.55-.56l.32-2,0-.1v0q.3-1.19.62-2.25t.63-1.91a12.24,12.24,0,0,1,.8-1.75,11.57,11.57,0,0,1,1.06-1.59,13.66,13.66,0,0,1,1.39-1.51,20.79,20.79,0,0,1,1.79-1.49c.7-.53,1.44-1.06,2.24-1.62L317,28.27l.09-.06q2.4-1.34,4.9-2.6t5-2.37q2.47-1.11,5.25-2.11t5.62-1.76q2.92-.8,6.13-1.4t6.71-1ZM255.3,115.11Zm.49-5.57Zm.23,2.28a6.54,6.54,0,0,1-.3,2.08s0,0,0,0h0c.06.36.06.55-.36,1.23a3.92,3.92,0,0,1-.85,1,2.21,2.21,0,0,1-1.41.53,6.6,6.6,0,0,1-2.24-.43,11.54,11.54,0,0,1-2.28-1.15,9.52,9.52,0,0,1-2.23-2,12,12,0,0,1-1.65-2.69l-.12-.27v-.28c0-.85,0-1.94.06-3.26l.15-4,.22-4.42.26-4.66.29-4.82.33-4.88.17-3a34,34,0,0,1,.67-6.54c4.8-12.69,3.22-23.35,2.28-29.7l-.3-2.13a8.89,8.89,0,0,1,0-2.65,5,5,0,0,1,.65-1.71l.1-.19.16-.15a10.81,10.81,0,0,1,4.73-2.84,4.38,4.38,0,0,1,1.91,0,3,3,0,0,1,2.37,2.35A96.26,96.26,0,0,1,260,48.11a80.17,80.17,0,0,1,.25,10.06,118.94,118.94,0,0,1-2.56,18.3c-.28,1.36-.48,2.35-.52,2.79A47.15,47.15,0,0,1,256.4,84a48.7,48.7,0,0,0-1.29,10.34l0,12.16a15.28,15.28,0,0,0,.51,2.47l.13.55A10.05,10.05,0,0,1,256,111.82Z"/></g></g></svg>