<svg xmlns="http://www.w3.org/2000/svg" viewBox="0 0 16 16"><defs><style>.cls-1{fill:#444;}</style></defs><title>remove</title><g id="Слой_2" data-name="Слой 2"><g id="_490_Icons" data-name="490 Icons"><path class="cls-1" d="M15.85,12.85h0L11,8l4.85-4.85h0A.49.49,0,0,0,16,3a.5.5,0,0,0-.11-.53L13.56.15A.5.5,0,0,0,13,0a.49.49,0,0,0-.18.11h0L8,5,3.15.15h0A.49.49,0,0,0,3,0a.5.5,0,0,0-.53.11L.15,2.44A.5.5,0,0,0,0,3a.49.49,0,0,0,.11.18h0L5,8,.15,12.85h0A.49.49,0,0,0,0,13a.5.5,0,0,0,.11.53l2.29,2.29A.5.5,0,0,0,3,16a.49.49,0,0,0,.18-.11h0L8,11l4.85,4.85h0A.49.49,0,0,0,13,16a.5.5,0,0,0,.53-.11l2.29-2.29A.5.5,0,0,0,16,13,.49.49,0,0,0,15.85,12.85Z"/></g></g></svg>